<?xml version="1.0" standalone="no"?>
<!DOCTYPE svg PUBLIC "-//W3C//DTD SVG 20010904//EN"
 "http://www.w3.org/TR/2001/REC-SVG-20010904/DTD/svg10.dtd">
<svg version="1.0" xmlns="http://www.w3.org/2000/svg"
 width="362.000000pt" height="277.000000pt" viewBox="0 0 362.000000 277.000000"
 preserveAspectRatio="xMidYMid meet">
<metadata>
Created by potrace 1.15, written by Peter Selinger 2001-2017
</metadata>
<g transform="translate(0.000000,277.000000) scale(0.100000,-0.100000)"
fill="#000000" stroke="none">
<path d="M1125 2269 c-247 -144 -465 -269 -484 -280 -19 -10 -38 -24 -43 -31
-4 -7 -8 -265 -8 -574 0 -433 3 -564 13 -577 12 -16 752 -448 910 -531 l77
-41 78 41 c95 50 857 489 895 516 l27 19 0 402 0 402 47 -80 c220 -382 216
-376 241 -373 19 2 47 44 153 228 l129 224 0 -297 0 -297 40 0 40 0 0 365 0
365 -39 0 -39 0 -139 -241 c-76 -133 -143 -241 -148 -241 -5 0 -71 107 -146
238 l-138 239 -1 100 c0 55 -4 105 -8 111 -6 11 -328 199 -804 472 -98 56
-183 102 -190 102 -7 0 -215 -118 -463 -261z m906 -95 c244 -141 450 -261 457
-266 9 -8 12 -126 12 -528 l0 -518 -447 -258 c-247 -142 -455 -258 -463 -258
-8 0 -216 116 -463 258 l-447 258 0 519 0 520 37 22 c20 12 224 131 452 264
229 132 417 242 417 242 1 1 201 -114 445 -255z"/>
<path d="M2118 1508 c-78 -136 -145 -248 -148 -248 -3 0 -68 110 -145 245
l-139 245 -38 0 -38 0 0 -365 0 -365 35 0 35 0 0 298 c1 261 2 295 15 278 8
-11 67 -113 132 -227 104 -184 121 -208 143 -209 22 0 40 26 155 227 l130 227
3 -297 2 -297 35 0 35 0 0 364 0 364 -34 4 -35 4 -143 -248z"/>
<path d="M970 1385 l0 -365 35 0 35 0 0 135 0 135 138 0 c127 0 142 2 188 25
132 66 165 241 66 355 -62 73 -87 80 -287 80 l-175 0 0 -365z m382 273 c89
-68 86 -215 -4 -280 -31 -21 -43 -23 -168 -23 l-135 0 -3 168 -2 169 138 -4
c133 -3 140 -4 174 -30z"/>
</g>
</svg>
