<?xml version="1.0" encoding="utf-8"?>
<!-- Generator: Adobe Illustrator 21.0.2, SVG Export Plug-In . SVG Version: 6.00 Build 0)  -->
<svg version="1.1" xmlns="http://www.w3.org/2000/svg" xmlns:xlink="http://www.w3.org/1999/xlink" x="0px" y="0px"
	 viewBox="0 0 792 612" style="enable-background:new 0 0 792 612;" xml:space="preserve">
<style type="text/css">
	.st0{fill:url(#SVGID_1_);}
	.st1{fill:url(#SVGID_2_);}
	.st2{fill:url(#SVGID_3_);}
	.st3{fill:url(#SVGID_4_);}
	.st4{fill:url(#SVGID_5_);}
	.st5{fill:url(#SVGID_6_);}
	.st6{fill:url(#SVGID_7_);}
	.st7{fill:#E9B6CD;}
	.st8{fill:url(#SVGID_8_);}
	.st9{fill:url(#SVGID_9_);}
	.st10{fill:url(#SVGID_10_);}
	.st11{fill:url(#SVGID_11_);}
	.st12{fill:url(#SVGID_12_);}
	.st13{fill:#8F4762;}
	.st14{fill:#FFFFFF;}
	.st15{fill:url(#SVGID_13_);}
	.st16{opacity:0.32;fill:url(#SVGID_14_);}
	.st17{opacity:0.6;fill:url(#SVGID_15_);}
	.st18{opacity:0.6;fill:url(#SVGID_16_);}
	.st19{fill:url(#SVGID_17_);}
	.st20{fill:url(#SVGID_18_);}
	.st21{fill:url(#SVGID_19_);}
	.st22{fill:url(#SVGID_20_);}
	.st23{fill:url(#SVGID_21_);}
	.st24{fill:#DFE0E1;}
	.st25{fill:url(#SVGID_22_);}
	.st26{fill:none;stroke:#8F4762;stroke-width:3.2955;}
	.st27{fill:url(#SVGID_23_);}
	.st28{fill:url(#SVGID_24_);}
	.st29{fill:url(#SVGID_25_);}
	.st30{fill:url(#SVGID_26_);}
	.st31{fill:url(#SVGID_27_);}
	.st32{fill:url(#SVGID_28_);}
	.st33{fill:url(#SVGID_29_);}
	.st34{fill:url(#SVGID_30_);}
	.st35{fill:url(#SVGID_31_);}
	.st36{fill:url(#SVGID_32_);}
	.st37{fill:url(#SVGID_33_);}
	.st38{fill:url(#SVGID_34_);}
	.st39{fill:#FAAF40;}
	.st40{fill:url(#SVGID_35_);}
	.st41{fill:url(#SVGID_36_);}
	.st42{fill:url(#SVGID_37_);}
	.st43{fill:url(#SVGID_38_);}
	.st44{fill:url(#SVGID_39_);}
	.st45{fill:url(#SVGID_40_);}
	.st46{fill:url(#SVGID_41_);}
	.st47{fill:url(#SVGID_42_);}
	.st48{fill:url(#SVGID_43_);}
	.st49{fill:url(#SVGID_44_);}
	.st50{fill:url(#SVGID_45_);}
	.st51{fill:url(#SVGID_46_);}
	.st52{fill:url(#SVGID_47_);}
	.st53{fill:url(#SVGID_48_);}
	.st54{fill:url(#SVGID_49_);}
	.st55{fill:url(#SVGID_50_);}
	.st56{fill:url(#SVGID_51_);}
</style>
<g id="Layer_2">
</g>
<g id="Layer_1">
	
		<radialGradient id="SVGID_1_" cx="519.8225" cy="915.0699" r="38.4113" gradientTransform="matrix(0.9763 0 0 0.3981 29.6691 189.6806)" gradientUnits="userSpaceOnUse">
		<stop  offset="0" style="stop-color:#DACDBE"/>
		<stop  offset="1" style="stop-color:#FFFFFF"/>
	</radialGradient>
	<ellipse class="st0" cx="537.2" cy="554" rx="37.5" ry="15.3"/>
	<linearGradient id="SVGID_2_" gradientUnits="userSpaceOnUse" x1="275.6801" y1="459.2156" x2="310.6802" y2="421.2155">
		<stop  offset="0" style="stop-color:#E9B6CD"/>
		<stop  offset="1" style="stop-color:#DC89AF"/>
	</linearGradient>
	<path class="st1" d="M326.3,384.3c-2.6-1.8-6.8,1.5-9.9,7.2c-10.9,20.8-27.3,39.1-47.8,53.2c-5.8,3.8-4.3,11.1,3.7,16.7l0,0
		c8,5.6,18.4,6.6,22.6,1.7c15.8-17.4,27.4-39,33.6-63.1C330.1,393.2,328.8,386.1,326.3,384.3L326.3,384.3z"/>
	
		<linearGradient id="SVGID_3_" gradientUnits="userSpaceOnUse" x1="1434.5123" y1="459.2156" x2="1469.5123" y2="421.2155" gradientTransform="matrix(-1 0 0 1 1952.1953 0)">
		<stop  offset="0" style="stop-color:#E9B6CD"/>
		<stop  offset="1" style="stop-color:#DC89AF"/>
	</linearGradient>
	<path class="st2" d="M467.1,384.3c2.6-1.8,6.8,1.5,9.9,7.2c10.9,20.8,27.3,39.1,47.8,53.2c5.8,3.8,4.3,11.1-3.7,16.7l0,0
		c-8,5.6-18.4,6.6-22.6,1.7c-15.8-17.4-27.4-39-33.6-63.1C463.2,393.2,464.5,386.1,467.1,384.3L467.1,384.3z"/>
	<linearGradient id="SVGID_4_" gradientUnits="userSpaceOnUse" x1="397.0104" y1="331.6795" x2="395.0105" y2="451.6792">
		<stop  offset="0" style="stop-color:#E9B6CD"/>
		<stop  offset="1" style="stop-color:#DC89AF"/>
	</linearGradient>
	<path class="st3" d="M473.9,466.1h-150c0,0-47.7-222.3,0-270c26.5-26.5,126.4-29.2,150,0C516.3,248.6,473.9,466.1,473.9,466.1z"/>
	<linearGradient id="SVGID_5_" gradientUnits="userSpaceOnUse" x1="398.621" y1="405.8569" x2="398.2742" y2="453.3737">
		<stop  offset="0" style="stop-color:#FAF1F6"/>
		<stop  offset="1" style="stop-color:#E9B6CD"/>
	</linearGradient>
	<path class="st4" d="M425.1,453.1h-52c0,0-16.6-77.1,0-93.6c9.2-9.2,43.9-10.1,52,0C439.9,377.6,425.1,453.1,425.1,453.1z"/>
	<linearGradient id="SVGID_6_" gradientUnits="userSpaceOnUse" x1="343.33" y1="478.5306" x2="343.33" y2="519.3805">
		<stop  offset="0" style="stop-color:#DC89AF"/>
		<stop  offset="1" style="stop-color:#A65371"/>
	</linearGradient>
	<path class="st5" d="M347.8,513.9c-2.5,7.9-6.5,7.9-8.9,0l-2.8-8.9c-2.5-7.9-6.5-20.8-8.9-28.6l-2.8-8.9
		c-2.5-7.9,0.8-14.3,7.2-14.3c6.4,0,16.9,0,23.4,0c6.4,0,9.7,6.4,7.2,14.3l-2.8,8.9c-2.5,7.9-6.5,20.8-8.9,28.6L347.8,513.9z"/>
	<linearGradient id="SVGID_7_" gradientUnits="userSpaceOnUse" x1="454.705" y1="478.5306" x2="454.705" y2="519.3805">
		<stop  offset="0" style="stop-color:#DC89AF"/>
		<stop  offset="1" style="stop-color:#A65371"/>
	</linearGradient>
	<path class="st6" d="M459.2,513.9c-2.5,7.9-6.5,7.9-8.9,0l-2.8-8.9c-2.5-7.9-6.5-20.8-8.9-28.6l-2.8-8.9
		c-2.5-7.9,0.8-14.3,7.2-14.3s16.9,0,23.4,0s9.7,6.4,7.2,14.3l-2.8,8.9c-2.5,7.9-6.5,20.8-8.9,28.6L459.2,513.9z"/>
	<path class="st7" d="M368.3,196.9c-4.7,4.7-14.7-0.7-23.4-11.3c-30.5-39.5-71.5-71.9-119.7-93.7c-13.5-5.8-13.1-21.7,1.7-36.4l0,0
		c14.7-14.7,36-20.6,46.7-12c39.5,30.5,71.9,71.5,93.7,119.7C373,176.7,373,192.2,368.3,196.9L368.3,196.9z"/>
	<linearGradient id="SVGID_8_" gradientUnits="userSpaceOnUse" x1="229.412" y1="120.5903" x2="354.3603" y2="120.5903">
		<stop  offset="0" style="stop-color:#FAF1F6"/>
		<stop  offset="1" style="stop-color:#E9B6CD"/>
	</linearGradient>
	<path class="st8" d="M354.4,180.7c-32-40.8-74.8-74.1-124-96.4l-0.3-0.1c-0.3-0.1-0.6-0.3-0.7-0.4c0-1.3,1.1-5.7,7-11.6
		c8-8,17.5-11.6,23.3-11.6c2,0,3,0.4,3.3,0.7l0.3,0.2c37.7,29.1,68.5,68.5,89.2,113.9C353.3,177.1,353.9,178.9,354.4,180.7
		L354.4,180.7z"/>
	<path class="st7" d="M368.3,196.9c-4.7,4.7-14.7-0.7-23.4-11.3c-30.5-39.5-71.5-71.9-119.7-93.7c-13.5-5.8-13.1-21.7,1.7-36.4l0,0
		c14.7-14.7,36-20.6,46.7-12c39.5,30.5,71.9,71.5,93.7,119.7C373,176.7,373,192.2,368.3,196.9L368.3,196.9z"/>
	<linearGradient id="SVGID_9_" gradientUnits="userSpaceOnUse" x1="229.412" y1="120.5903" x2="354.3603" y2="120.5903">
		<stop  offset="0" style="stop-color:#FAF1F6"/>
		<stop  offset="1" style="stop-color:#E9B6CD"/>
	</linearGradient>
	<path class="st9" d="M354.4,180.7c-32-40.8-74.8-74.1-124-96.4l-0.3-0.1c-0.3-0.1-0.6-0.3-0.7-0.4c0-1.3,1.1-5.7,7-11.6
		c8-8,17.5-11.6,23.3-11.6c2,0,3,0.4,3.3,0.7l0.3,0.2c37.7,29.1,68.5,68.5,89.2,113.9C353.3,177.1,353.9,178.9,354.4,180.7
		L354.4,180.7z"/>
	<path class="st7" d="M425.9,196.9c4.7,4.7,14.7-0.7,23.4-11.3c30.5-39.5,71.5-71.9,119.7-93.7c13.5-5.8,13.1-21.7-1.7-36.4l0,0
		c-14.7-14.7-36-20.6-46.7-12c-39.5,30.5-71.9,71.5-93.7,119.7C421.1,176.7,421.1,192.2,425.9,196.9L425.9,196.9z"/>
	
		<linearGradient id="SVGID_10_" gradientUnits="userSpaceOnUse" x1="1380.2443" y1="120.5903" x2="1505.1924" y2="120.5903" gradientTransform="matrix(-1 0 0 1 1944.9492 0)">
		<stop  offset="0" style="stop-color:#FAF1F6"/>
		<stop  offset="1" style="stop-color:#E9B6CD"/>
	</linearGradient>
	<path class="st10" d="M439.8,180.7c32-40.8,74.8-74.1,124-96.4l0.3-0.1c0.3-0.1,0.6-0.3,0.7-0.4c0-1.3-1.1-5.7-7-11.6
		c-8-8-17.5-11.6-23.3-11.6c-2,0-3,0.4-3.3,0.7l-0.3,0.2c-37.7,29.1-68.5,68.5-89.2,113.9C440.8,177.1,440.2,178.9,439.8,180.7
		L439.8,180.7z"/>
	<path class="st7" d="M425.9,196.9c4.7,4.7,14.7-0.7,23.4-11.3c30.5-39.5,71.5-71.9,119.7-93.7c13.5-5.8,13.1-21.7-1.7-36.4l0,0
		c-14.7-14.7-36-20.6-46.7-12c-39.5,30.5-71.9,71.5-93.7,119.7C421.1,176.7,421.1,192.2,425.9,196.9L425.9,196.9z"/>
	
		<linearGradient id="SVGID_11_" gradientUnits="userSpaceOnUse" x1="1380.2443" y1="120.5903" x2="1505.1924" y2="120.5903" gradientTransform="matrix(-1 0 0 1 1944.9492 0)">
		<stop  offset="0" style="stop-color:#FAF1F6"/>
		<stop  offset="1" style="stop-color:#E9B6CD"/>
	</linearGradient>
	<path class="st11" d="M439.8,180.7c32-40.8,74.8-74.1,124-96.4l0.3-0.1c0.3-0.1,0.6-0.3,0.7-0.4c0-1.3-1.1-5.7-7-11.6
		c-8-8-17.5-11.6-23.3-11.6c-2,0-3,0.4-3.3,0.7l-0.3,0.2c-37.7,29.1-68.5,68.5-89.2,113.9C440.8,177.1,440.2,178.9,439.8,180.7
		L439.8,180.7z"/>
	<radialGradient id="SVGID_12_" cx="339.0693" cy="232.1706" r="18.0493" gradientUnits="userSpaceOnUse">
		<stop  offset="2.197800e-02" style="stop-color:#B77192"/>
		<stop  offset="1" style="stop-color:#E9B6CD"/>
	</radialGradient>
	<circle class="st12" cx="339.1" cy="232.2" r="18"/>
	<circle class="st13" cx="339.2" cy="231.6" r="8.8"/>
	<circle class="st14" cx="341.4" cy="229.3" r="3.3"/>
	<circle class="st14" cx="342.5" cy="236.4" r="1.3"/>
	<radialGradient id="SVGID_13_" cx="459.3051" cy="232.1706" r="18.0491" gradientUnits="userSpaceOnUse">
		<stop  offset="2.197800e-02" style="stop-color:#B77192"/>
		<stop  offset="1" style="stop-color:#E9B6CD"/>
	</radialGradient>
	<circle class="st15" cx="459.3" cy="232.2" r="18"/>
	<circle class="st13" cx="459.4" cy="231.6" r="8.8"/>
	<circle class="st14" cx="461.7" cy="229.3" r="3.3"/>
	<circle class="st14" cx="462.7" cy="236.4" r="1.3"/>
	
		<radialGradient id="SVGID_14_" cx="457.3961" cy="825.3109" r="38.6208" gradientTransform="matrix(2.3677 0 0 0.3409 -673.2844 236.5404)" gradientUnits="userSpaceOnUse">
		<stop  offset="0" style="stop-color:#DACDBE"/>
		<stop  offset="1" style="stop-color:#FFFFFF"/>
	</radialGradient>
	<ellipse class="st16" cx="409.7" cy="517.9" rx="91.4" ry="13.2"/>
	
		<radialGradient id="SVGID_15_" cx="344.0165" cy="825.3094" r="38.6212" gradientTransform="matrix(1 0 0 0.3409 0 236.5409)" gradientUnits="userSpaceOnUse">
		<stop  offset="0" style="stop-color:#DACDBE"/>
		<stop  offset="1" style="stop-color:#FFFFFF"/>
	</radialGradient>
	<ellipse class="st17" cx="344" cy="517.9" rx="38.6" ry="13.2"/>
	
		<radialGradient id="SVGID_16_" cx="453.0126" cy="825.3109" r="38.6212" gradientTransform="matrix(1 0 0 0.3409 0 236.5404)" gradientUnits="userSpaceOnUse">
		<stop  offset="0" style="stop-color:#DACDBE"/>
		<stop  offset="1" style="stop-color:#FFFFFF"/>
	</radialGradient>
	<ellipse class="st18" cx="453" cy="517.9" rx="38.6" ry="13.2"/>
	<g>
		<linearGradient id="SVGID_17_" gradientUnits="userSpaceOnUse" x1="399.3125" y1="250.4851" x2="399.3125" y2="271.246">
			<stop  offset="0" style="stop-color:#DC89AF"/>
			<stop  offset="1" style="stop-color:#8F4762"/>
		</linearGradient>
		<path class="st19" d="M390.8,250.4c4.7,0,12.4,0,17.1,0c4.7,0,6.6,3.3,4.3,7.4c-2.3,4.1-6.2,10.7-8.5,14.8c-2.3,4.1-6.2,4.1-8.5,0
			c-2.3-4.1-6.2-10.7-8.5-14.8C384.2,253.7,386.1,250.4,390.8,250.4z"/>
	</g>
	<linearGradient id="SVGID_18_" gradientUnits="userSpaceOnUse" x1="395.6328" y1="218.5085" x2="395.6328" y2="174.3267">
		<stop  offset="0" style="stop-color:#E9B6CD"/>
		<stop  offset="1" style="stop-color:#DC89AF"/>
	</linearGradient>
	<path class="st20" d="M359.8,185.3c4.4,1.4,9.9,0,15.2,0.5c0.2,0.2,0.4,0.4,0.6,0.6c-1.5,3.5-3.9,7.1-5.9,10.2
		c4.1,0.2,8.8-0.5,13-0.9c-0.3,4.3-0.8,9.6-0.9,14.1c10.5-6.6,10.3,2.1,14.7,9.2c4.2-9.6,8.6-12.2,16.9-4.8c-0.9-4-0.7-8.5,1.9-11.9
		c2.2,0.8,5.6,0.5,7.5,1.2c-2.8-1.7-4.5-8.6-3.6-13.9c3,1.2,6,1.4,8.7,3.6c-0.6-5.2,1.2-10.1,2.3-15c0.6,0.1,1.3,1.4,1.5,1.4
		c-4.9-6.5-11.4-3.5-17.6-6.4c-7.9-3.6-5.6-7.1-9.8-14.4c-3.4,3-5.4,7.6-8.1,10.4c-3.5-4.1-9.1-8.9-14.4-10.7
		c-0.2,4.1,0.8,8.2,2.1,11.8C381.4,171.5,359.4,185.2,359.8,185.3z"/>
	<linearGradient id="SVGID_19_" gradientUnits="userSpaceOnUse" x1="395.6328" y1="159.5084" x2="395.6328" y2="210.5178">
		<stop  offset="0" style="stop-color:#DC89AF"/>
		<stop  offset="1" style="stop-color:#8F4762"/>
	</linearGradient>
	<path class="st21" d="M359.8,178.3c4.4,1.4,9.9,0,15.2,0.5c0.2,0.2,0.4,0.4,0.6,0.6c-1.5,3.5-3.9,7.1-5.9,10.2
		c4.1,0.2,8.8-0.5,13-0.9c-0.3,4.3-0.8,9.6-0.9,14.1c10.5-6.6,10.3,2.1,14.7,9.2c4.2-9.6,8.6-12.2,16.9-4.8c-0.9-4-0.7-8.5,1.9-11.9
		c2.2,0.8,5.6,0.5,7.5,1.2c-2.8-1.7-4.5-8.6-3.6-13.9c3,1.2,6,1.4,8.7,3.6c-0.6-5.2,1.2-10.1,2.3-15c0.6,0.1,1.3,1.4,1.5,1.4
		c-4.9-6.5-11.4-3.5-17.6-6.4c-7.9-3.6-5.6-7.1-9.8-14.4c-3.4,3-5.4,7.6-8.1,10.4c-3.5-4.1-9.1-8.9-14.4-10.7
		c-0.2,4.1,0.8,8.2,2.1,11.8C381.4,164.5,359.4,178.2,359.8,178.3z"/>
	<linearGradient id="SVGID_20_" gradientUnits="userSpaceOnUse" x1="395.9301" y1="303.5085" x2="395.9301" y2="268.3375">
		<stop  offset="0" style="stop-color:#E9B6CD"/>
		<stop  offset="1" style="stop-color:#DC89AF"/>
	</linearGradient>
	<path class="st22" d="M321.9,275.5c14.8,25.6,42.4,42.9,74.1,42.9c31.7,0,59.3-17.3,74.1-42.9H321.9z"/>
	<linearGradient id="SVGID_21_" gradientUnits="userSpaceOnUse" x1="377.4355" y1="298.8426" x2="377.4355" y2="319.6801">
		<stop  offset="5.494510e-03" style="stop-color:#FFFFFF"/>
		<stop  offset="1" style="stop-color:#E6E7E8"/>
	</linearGradient>
	<path class="st23" d="M396.4,315.5c-6.7,6.7-31.3,6.7-38,0c-7.1-7.1,0-40,0-40h38C396.4,275.5,403.5,308.4,396.4,315.5z"/>
	<path class="st24" d="M379.1,282.5c6.7,0,13.1,0.8,19,2.2c-0.8-5.3-1.6-9.2-1.6-9.2h-38c0,0-0.9,4.3-1.8,10.1
		C363.4,283.6,371,282.5,379.1,282.5z"/>
	<linearGradient id="SVGID_22_" gradientUnits="userSpaceOnUse" x1="420.7685" y1="298.8426" x2="420.7685" y2="319.6801">
		<stop  offset="5.494510e-03" style="stop-color:#FFFFFF"/>
		<stop  offset="1" style="stop-color:#E6E7E8"/>
	</linearGradient>
	<path class="st25" d="M439.8,315.5c-6.7,6.7-31.3,6.7-38,0c-7.1-7.1,0-40,0-40h38C439.8,275.5,446.8,308.4,439.8,315.5z"/>
	<path class="st24" d="M422.4,282.5c6.7,0,13.1,0.8,19,2.2c-0.8-5.3-1.6-9.2-1.6-9.2h-38c0,0-0.9,4.3-1.8,10.1
		C406.8,283.6,414.4,282.5,422.4,282.5z"/>
	<line class="st26" x1="322.4" y1="275.8" x2="470" y2="275.8"/>
	<linearGradient id="SVGID_23_" gradientUnits="userSpaceOnUse" x1="539.3412" y1="537.0128" x2="539.3412" y2="559.0037">
		<stop  offset="0" style="stop-color:#FAAF40"/>
		<stop  offset="1" style="stop-color:#F48022"/>
	</linearGradient>
	<path class="st27" d="M518.2,547.3c0.1-0.3,0-0.5-0.1-0.8c-0.9-0.3-3.1,0.6-3.2,1.6c-0.1,1.1,1.9,1.8,2.8,1.7
		c0.4,1.1-0.8,1.3,0.1,2.3c0.3,0.3,2.1,1,2.5,1.2c1.8,0.8,2.9-0.9,5.1-0.7c-2.4,4.7,6.9,0.5,6.8,3.6c1.9,1.1,3.1-1.1,4.8-0.7
		c1,0.3,0.8,1.1,2.2,1.2c0.9,0,2.4-0.3,3.3-0.5c0.9-0.2,1.9-1,2.8-1.1c0.6,0,2,0.8,2.6,0.8c2.1-0.1,2.9-2.9,5.1-3.2
		c0.8-0.1,1.4,0.7,2.4,0.8c0.9,0,2.3-0.3,3.2-0.5c0.9-0.2,1.6-0.5,2.6-0.7c1-0.2,1.8-0.2,2.4-1.3c2.1-4.3-7.3-3.4-9.3-2.5
		c0-0.3-0.2-0.7-0.1-1c-1.6-0.2-2.4,0.3-3.7,0.7c-1.3,0.3-3,0.1-4.4,0.1c-1.7,0-3.4,0.4-4.9,0.4c-1.7,0.1-3.3-0.9-5-1.2
		c-1.7-0.2-3.5,0.1-5.3-0.1c-1.7-0.2-3.3-0.6-5-0.8c-1.5-0.2-2.9-0.7-4.1-0.5c-1.1,0.1-2.8,0.3-3.7,0.9c-0.3,0-0.3,0,0,0
		L518.2,547.3z"/>
	<linearGradient id="SVGID_24_" gradientUnits="userSpaceOnUse" x1="509.9242" y1="549.8607" x2="509.9242" y2="556.3733">
		<stop  offset="0" style="stop-color:#FAAF40"/>
		<stop  offset="1" style="stop-color:#F48022"/>
	</linearGradient>
	<path class="st28" d="M506.6,551.8c0.9,0.6,1.4,2.5,1.4,3.6c1.8-0.2,2.7,1.6,4.2,0.2c0.8-0.7,2-3.1,0-3.1c0.5,0-1.8-1.7-1.7-1.6
		c-0.4-0.5-0.8-0.8-0.7-1.5C509.1,550.8,507.2,550.5,506.6,551.8z"/>
	<linearGradient id="SVGID_25_" gradientUnits="userSpaceOnUse" x1="498.3005" y1="551.0839" x2="498.3005" y2="553.2575">
		<stop  offset="0" style="stop-color:#FAAF40"/>
		<stop  offset="1" style="stop-color:#F48022"/>
	</linearGradient>
	<path class="st29" d="M498.1,551c-1.2-0.3-2.8,0.5-2.4,2c1.5,0.2,6.2,0.8,5.2-1.9c-0.8-0.1-1.6-0.1-2.4-0.1H498.1z"/>
	<linearGradient id="SVGID_26_" gradientUnits="userSpaceOnUse" x1="518.567" y1="567.3779" x2="518.567" y2="570.1071">
		<stop  offset="0" style="stop-color:#FAAF40"/>
		<stop  offset="1" style="stop-color:#F48022"/>
	</linearGradient>
	<path class="st30" d="M517.9,567.2c-3.3,0.8,1.6,4.7,2.4,1.7c-0.4-0.2-0.6-0.5-1.1-0.6c0-0.6-0.3-0.5-0.5-0.7L517.9,567.2z"/>
	<linearGradient id="SVGID_27_" gradientUnits="userSpaceOnUse" x1="543.8655" y1="560.5464" x2="543.8655" y2="562.6027">
		<stop  offset="0" style="stop-color:#FAAF40"/>
		<stop  offset="1" style="stop-color:#F48022"/>
	</linearGradient>
	<path class="st31" d="M542.9,560.5c-2.7,1,3.8,4.1,2.4,0.1c-0.3-0.1-0.8-0.2-1.2-0.1H542.9z"/>
	<linearGradient id="SVGID_28_" gradientUnits="userSpaceOnUse" x1="557.9471" y1="558.1976" x2="557.9471" y2="561.418">
		<stop  offset="0" style="stop-color:#FAAF40"/>
		<stop  offset="1" style="stop-color:#F48022"/>
	</linearGradient>
	<path class="st32" d="M557.7,558c-0.6,1-2.1,1.6-2,2.8c0.7,0,1.4,0.5,2.1,0.5c0.9,0,1.4-0.5,2.3-0.5
		C560.6,559.6,558.6,558.5,557.7,558L557.7,558z"/>
	<linearGradient id="SVGID_29_" gradientUnits="userSpaceOnUse" x1="531.8481" y1="564.6843" x2="531.8481" y2="569.4767">
		<stop  offset="0" style="stop-color:#FAAF40"/>
		<stop  offset="1" style="stop-color:#F48022"/>
	</linearGradient>
	<path class="st33" d="M530.2,569.1c2.1,0.8,5.1-0.7,5.3-3.2c-1.2,0.1-2.3-0.7-3.5-0.9c0.1-0.1,0.3-0.3,0.4-0.4
		C529.5,563.4,526,567.5,530.2,569.1z"/>
	<linearGradient id="SVGID_30_" gradientUnits="userSpaceOnUse" x1="546.6177" y1="566.3461" x2="546.6177" y2="568.6123">
		<stop  offset="0" style="stop-color:#FAAF40"/>
		<stop  offset="1" style="stop-color:#F48022"/>
	</linearGradient>
	<path class="st34" d="M545.8,566.2c-2.1,1.7,0.9,3,2,2c1.5-1.3-1.4-2.1-2.4-2H545.8z"/>
	<linearGradient id="SVGID_31_" gradientUnits="userSpaceOnUse" x1="492.9349" y1="549.0447" x2="492.9349" y2="552.6629">
		<stop  offset="0" style="stop-color:#FAAF40"/>
		<stop  offset="1" style="stop-color:#F48022"/>
	</linearGradient>
	<path class="st35" d="M493.6,549.1c0.3,0,0.4-0.1,0.4-0.3c-1.2,0-3.9,1-3.2,2.7c1,0.3,1.6,1.3,2.8,0.9c1.1-0.3,1.3-1.6,1.6-2.4
		c-0.4-0.5-0.9-0.7-1.6-0.5V549.1z"/>
	<linearGradient id="SVGID_32_" gradientUnits="userSpaceOnUse" x1="497.8235" y1="557.7974" x2="497.8235" y2="560.2842">
		<stop  offset="0" style="stop-color:#FAAF40"/>
		<stop  offset="1" style="stop-color:#F48022"/>
	</linearGradient>
	<path class="st36" d="M498.6,557.7c-0.7,0-2.1-0.3-2.6,0.3c-0.6,0.8,0.3,1.3,0.6,2.1c1.3,0.3,3.6-0.2,3.2-1.9
		c-0.5-0.2-0.8,0-1.2,0.4V557.7z"/>
	<linearGradient id="SVGID_33_" gradientUnits="userSpaceOnUse" x1="510.0126" y1="558.4843" x2="510.0126" y2="562.9557">
		<stop  offset="0" style="stop-color:#FAAF40"/>
		<stop  offset="1" style="stop-color:#F48022"/>
	</linearGradient>
	<path class="st37" d="M509.4,562.8c0.7,0,1.9-0.1,2.5-0.6c0.1-0.1,0.2-0.2,0.3-0.3c0.5-0.7,0.2-2.3-0.6-2.8c1.6-2.1-2.1,0-2.6,0.5
		C507.6,561,506.4,563,509.4,562.8z"/>
	<linearGradient id="SVGID_34_" gradientUnits="userSpaceOnUse" x1="524.6024" y1="557.4322" x2="524.6024" y2="563.4653">
		<stop  offset="0" style="stop-color:#FAAF40"/>
		<stop  offset="1" style="stop-color:#F48022"/>
	</linearGradient>
	<path class="st38" d="M525.7,562.2c2,3.3,5.7-2,1-1.8c0.1-3.6-4.8-4.7-6.2-1.3c-0.6,1.5,0.2,2.9,1.5,3.3
		C522.4,562.5,525.8,562.4,525.7,562.2z"/>
	<g>
		<path class="st39" d="M384.7,311.6c1-1,1-2.8-1.5-6c-3-1.6-6.4,0.5-7.8,3C376.8,311.2,381.6,314.5,384.7,311.6z"/>
		<path class="st39" d="M417.9,308.3c1-2.8-3.1-7.4-4-9.2c0,0,0,0,0,0c-2.6-0.7-4.9-0.6-7,1.1c-0.5,1.5-0.6,6.4-0.4,7.9
			C409.6,311,415.6,314.9,417.9,308.3z"/>
		<path class="st39" d="M429.4,313.8c-0.2,1-0.2,2.1-1,3.2c3.9,2.6,6.2,1.2,6.4-3.6c-1.4-0.8-2.3-0.4-3.8-0.7L429.4,313.8z"/>
		<path class="st39" d="M367,312.9c-0.1,0.1-1.1,1.5-1.5,2.2c1.3,1.4,3.4,2.5,5.2,2.9c1.6-2.7,1.1-5.1-1.9-5.8L367,312.9z"/>
		<path class="st39" d="M383.1,319.1c0.2,1.8,4.2,0.6,3.6-1.6C385.9,314.5,382.9,316.9,383.1,319.1z"/>
		<path class="st39" d="M367.5,298c0.2,1.8,4.2,0.6,3.6-1.6C370.3,293.4,367.2,295.8,367.5,298z"/>
		<path class="st39" d="M384.2,301.8c0.2,1.8,4.2,0.6,3.6-1.6C387,297.2,384,299.7,384.2,301.8z"/>
		<path class="st39" d="M402.1,314.7c0.2,1.8,4.2,0.6,3.6-1.6C404.8,310.1,401.8,312.5,402.1,314.7z"/>
		<path class="st39" d="M423.5,304.7c-1.1,1.4,2.7,3.3,3.7,1.3C428.6,303.2,424.8,302.9,423.5,304.7z"/>
		<path class="st39" d="M416.1,316.5c-1.1,1.4,2.7,3.3,3.7,1.3C421.2,315,417.4,314.7,416.1,316.5z"/>
		<linearGradient id="SVGID_35_" gradientUnits="userSpaceOnUse" x1="426.692" y1="295.9035" x2="426.692" y2="299.5852">
			<stop  offset="0" style="stop-color:#FAAF40"/>
			<stop  offset="1" style="stop-color:#F48022"/>
		</linearGradient>
		<path class="st40" d="M426.1,295.7c-0.1-0.1-1.6,2.5-0.4,3.8c0.3,0,1.1,0,1.4,0c1.9-1.3,0.9-4.4-1-2.6V295.7z"/>
		<linearGradient id="SVGID_36_" gradientUnits="userSpaceOnUse" x1="418.9747" y1="324.9136" x2="418.9747" y2="331.2697">
			<stop  offset="0" style="stop-color:#FAAF40"/>
			<stop  offset="1" style="stop-color:#F48022"/>
		</linearGradient>
		<path class="st41" d="M418.2,325c0-0.4,0.1-0.5,0.3-0.5c-1,1.3-3.3,3.4-2.4,5.3c0.8,1.6,3.1,1.4,4.3,0.7c3.5-2.1,1.1-8.1-2.8-5
			L418.2,325z"/>
		<linearGradient id="SVGID_37_" gradientUnits="userSpaceOnUse" x1="395.1863" y1="305.9494" x2="395.1863" y2="314.0612">
			<stop  offset="0" style="stop-color:#FAAF40"/>
			<stop  offset="1" style="stop-color:#F48022"/>
		</linearGradient>
		<path class="st42" d="M393.8,313.8c1.5-0.1,3.9-2,4.8-3.4c2.5-3.9-3-6.3-6-4.1C390.6,307.7,390.4,313.9,393.8,313.8z"/>
		<linearGradient id="SVGID_38_" gradientUnits="userSpaceOnUse" x1="428.902" y1="330.9686" x2="428.902" y2="336.6907">
			<stop  offset="0" style="stop-color:#FAAF40"/>
			<stop  offset="1" style="stop-color:#F48022"/>
		</linearGradient>
		<path class="st43" d="M427.2,331.6c-1.5,1.5-2.2,3-0.5,4.2c1.5,1.1,3,0.7,4.2-0.5c1.3-1.3,1.6-2.5,0.3-3.9
			c-1.5-1.6-2.9-0.6-4.5,0.2"/>
		<linearGradient id="SVGID_39_" gradientUnits="userSpaceOnUse" x1="335.2173" y1="294.3475" x2="335.2173" y2="307.3935">
			<stop  offset="0" style="stop-color:#FAAF40"/>
			<stop  offset="1" style="stop-color:#F48022"/>
		</linearGradient>
		<path class="st44" d="M328.3,300.5c1.6,3,4.9,0.9,7.2,0.5c0.2,0.9,0.7,1,1.1,1.7c0.4,0.7,0.4,1.4,0.7,2.1c0.8,1.8,1.4,2.6,3.8,2.1
			c1.1-3.4,3-6.1-1.5-8.2c-0.8-0.4-1.4,0.3-2.1-0.6c-0.8-1,0.5-2.4-0.2-3.5c-0.7-1.1-3.2-1.2-4.3-0.8
			C330.7,294.5,327,298.2,328.3,300.5z"/>
		<linearGradient id="SVGID_40_" gradientUnits="userSpaceOnUse" x1="449.7945" y1="336.229" x2="449.7945" y2="339.9261">
			<stop  offset="0" style="stop-color:#FAAF40"/>
			<stop  offset="1" style="stop-color:#F48022"/>
		</linearGradient>
		<path class="st45" d="M448.1,336c-1.7,4.8,3.8,4.7,3.8,1.8c-0.3-0.1-0.6-0.2-0.9-0.2c-0.1-0.3-0.1-0.6-0.2-0.9
			c-0.3-0.2-0.7-0.2-1-0.1L448.1,336z"/>
		<linearGradient id="SVGID_41_" gradientUnits="userSpaceOnUse" x1="392.2171" y1="331.7628" x2="392.2171" y2="338.6254">
			<stop  offset="0" style="stop-color:#FAAF40"/>
			<stop  offset="1" style="stop-color:#F48022"/>
		</linearGradient>
		<path class="st46" d="M392.1,331.3c-0.2,0.3-0.4,0.3-0.6,0.2c-0.3,2.5-2.7,4.6-0.5,6.8c0.9-0.6,2.1-0.5,3.2-0.6
			c0.3-1.1-0.1-2.5-0.1-3.2c-1-0.4-1.9-0.5-2.5-1.1L392.1,331.3z"/>
		<linearGradient id="SVGID_42_" gradientUnits="userSpaceOnUse" x1="348.2392" y1="315.7811" x2="348.2392" y2="321.7014">
			<stop  offset="0" style="stop-color:#FAAF40"/>
			<stop  offset="1" style="stop-color:#F48022"/>
		</linearGradient>
		<path class="st47" d="M347.9,315.4c0,1.2-0.1,1.9-0.4,2.9c-0.4,1-1.4,1.9-1.2,3.1c1.6,0.3,2.4,0.2,3.2-1c0.6-0.8,0.9-2.8,0-3.3
			L347.9,315.4z"/>
		<linearGradient id="SVGID_43_" gradientUnits="userSpaceOnUse" x1="458.1991" y1="309.6396" x2="458.1991" y2="317.0981">
			<stop  offset="0" style="stop-color:#FAAF40"/>
			<stop  offset="1" style="stop-color:#F48022"/>
		</linearGradient>
		<path class="st48" d="M463,315.2c2.3-3.2-7.6-9.3-9.8-3.9C451.4,316.2,460.5,318.7,463,315.2z"/>
		<linearGradient id="SVGID_44_" gradientUnits="userSpaceOnUse" x1="362.3438" y1="329.9302" x2="362.3438" y2="336.6196">
			<stop  offset="0" style="stop-color:#FAAF40"/>
			<stop  offset="1" style="stop-color:#F48022"/>
		</linearGradient>
		<path class="st49" d="M359.5,331.9c0.1-0.2,0.2-0.3,0.3-0.5c-2.8,3.7,2.1,6.9,4.8,3.8c4.1-4.6-3.7-7.5-4.5-4.4L359.5,331.9z"/>
		<linearGradient id="SVGID_45_" gradientUnits="userSpaceOnUse" x1="441.4887" y1="330.122" x2="441.4887" y2="333.9463">
			<stop  offset="0" style="stop-color:#FAAF40"/>
			<stop  offset="1" style="stop-color:#F48022"/>
		</linearGradient>
		<path class="st50" d="M440.7,331.1c-0.4-0.1-0.7-0.1-1,0.1c-0.2,0.2-0.5,1.2-0.6,1.4c1.7,0.6,2.2,1.6,4.2,1.1
			c0.8-1.1,0.3-2.4,0.6-3.6c-1-0.2-2.1-0.4-2.7,0.5L440.7,331.1z"/>
		<linearGradient id="SVGID_46_" gradientUnits="userSpaceOnUse" x1="333.6364" y1="310.5762" x2="333.6364" y2="316.5951">
			<stop  offset="0" style="stop-color:#FAAF40"/>
			<stop  offset="1" style="stop-color:#F48022"/>
		</linearGradient>
		<path class="st51" d="M335.3,310.2c-0.3,0-0.5,0-0.8,0c0,0.2,0.1,0.3,0.1,0.5c-2.7-0.2-4.3,4.8-1.6,5.6c3.9,1.1,2.6-3.9,0-4.9
			L335.3,310.2z"/>
	</g>
	<linearGradient id="SVGID_47_" gradientUnits="userSpaceOnUse" x1="539.2509" y1="537.0138" x2="539.2509" y2="559.0023">
		<stop  offset="0" style="stop-color:#FAAF40"/>
		<stop  offset="1" style="stop-color:#F48022"/>
	</linearGradient>
	<path class="st52" d="M539.3,552.3c8.6,0,16.3-1.5,22.1-4c-1.9-7-11.1-12.3-22.1-12.3s-20.2,5.3-22.1,12.3
		C522.9,550.8,530.7,552.3,539.3,552.3z"/>
	<linearGradient id="SVGID_48_" gradientUnits="userSpaceOnUse" x1="539.2509" y1="532.9378" x2="539.2509" y2="545.9542">
		<stop  offset="0" style="stop-color:#37B34A"/>
		<stop  offset="1" style="stop-color:#009345"/>
	</linearGradient>
	<path class="st53" d="M539.3,542c5.1,0,9.7-0.9,13.1-2.4c-1.1-4.1-6.6-7.3-13.1-7.3c-6.5,0-12,3.1-13.1,7.3
		C529.6,541.1,534.2,542,539.3,542z"/>
	<linearGradient id="SVGID_49_" gradientUnits="userSpaceOnUse" x1="529.5254" y1="514.3665" x2="529.5254" y2="536.1843">
		<stop  offset="0" style="stop-color:#37B34A"/>
		<stop  offset="1" style="stop-color:#009345"/>
	</linearGradient>
	<path class="st54" d="M534.3,535.5c0,0-6.5-20-12.8-20.2l6.8-2.2c0,0,9.5,14.2,9.2,21.2C537.5,535.1,534.3,535.5,534.3,535.5z"/>
	<linearGradient id="SVGID_50_" gradientUnits="userSpaceOnUse" x1="539.6025" y1="500.276" x2="539.6025" y2="536.6391">
		<stop  offset="0" style="stop-color:#37B34A"/>
		<stop  offset="1" style="stop-color:#009345"/>
	</linearGradient>
	<path class="st55" d="M537.5,534.2l-1.7-35.5c0,0,4.5-0.8,7-0.8s-3.5,37.5-3.5,37.5L537.5,534.2z"/>
	<linearGradient id="SVGID_51_" gradientUnits="userSpaceOnUse" x1="545.0478" y1="513.662" x2="545.0478" y2="536.2071">
		<stop  offset="0" style="stop-color:#37B34A"/>
		<stop  offset="1" style="stop-color:#009345"/>
	</linearGradient>
	<polygon class="st56" points="548.5,512.3 539,534 541.8,535.5 551,513 	"/>
</g>
</svg>
