<svg xmlns="http://www.w3.org/2000/svg" xmlns:xlink="http://www.w3.org/1999/xlink" viewBox="0 0 792 612"><defs><style>.cls-1{fill:#b9d432;}.cls-2{fill:#d6de23;}.cls-3{fill:#231f20;}.cls-4{fill:#fff;}.cls-5{fill:#ebeea4;}.cls-6{fill:url(#linear-gradient);}</style><linearGradient id="linear-gradient" x1="400.3" y1="307.63" x2="400.3" y2="284.38" gradientUnits="userSpaceOnUse"><stop offset="0" stop-color="#ec297b"/><stop offset="1" stop-color="#f6b3d0"/></linearGradient></defs><title>Artboard 2</title><g id="Layer_1" data-name="Layer 1"><path class="cls-1" d="M309.53,229.56a89.42,89.42,0,1,1,178.84,0c0,49.39-40,127.07-89.42,127.07S309.53,278.95,309.53,229.56Z"/><path class="cls-2" d="M309.53,221c0-44.65,40-80.84,89.42-80.84s89.42,36.2,89.42,80.84-40,114.88-89.42,114.88S309.53,265.63,309.53,221Z"/><path class="cls-3" d="M348.74,256.07a51.56,51.56,0,1,0,103.12,0Z"/><path class="cls-4" d="M400.3,257c-.06-.31-.14-.62-.22-.92H377.62a11.68,11.68,0,1,0,22.68,5.52A11.68,11.68,0,1,0,423,256.07H400.52C400.44,256.37,400.36,256.68,400.3,257Z"/><circle class="cls-3" cx="362.4" cy="228.13" r="13.52"/><circle class="cls-4" cx="363.77" cy="223.55" r="5.27"/><circle class="cls-4" cx="368.81" cy="233.17" r="2.98"/><circle class="cls-3" cx="437.56" cy="228.13" r="13.52"/><circle class="cls-4" cx="438.93" cy="223.55" r="5.27"/><circle class="cls-4" cx="443.97" cy="233.17" r="2.98"/><ellipse class="cls-5" cx="412.17" cy="158.34" rx="18.48" ry="8.93"/><ellipse class="cls-5" cx="437.08" cy="176.2" rx="13.32" ry="6.44"/><ellipse class="cls-5" cx="381.56" cy="160" rx="6.56" ry="3.17"/><ellipse class="cls-5" cx="400.75" cy="174.07" rx="6.56" ry="3.17"/><ellipse class="cls-5" cx="382.1" cy="169.63" rx="4.19" ry="2.03"/><ellipse class="cls-5" cx="361.71" cy="164.37" rx="4.19" ry="2.03"/><path class="cls-6" d="M400.3,284a17.22,17.22,0,0,0-16.85,20.84,51.56,51.56,0,0,0,33.7,0A17.22,17.22,0,0,0,400.3,284Z"/><path class="cls-2" d="M268.41,322.07a8.31,8.31,0,0,1-6.79-9.58h0a28.8,28.8,0,0,1,2.21-6.82h0a26.17,26.17,0,0,1,9.88-11.48h0a24.75,24.75,0,0,1,13.13-3.57h0c6.48,0,13.62,2.09,21.82,6.56h0c8,4.38,13.31,5.5,16.17,5.48h0a7.23,7.23,0,0,0,3-.54h0a3.79,3.79,0,0,0,1.3-.95h0a5.61,5.61,0,0,0,1.11-2.06h0v0h0a8.3,8.3,0,0,1,9.49-6.67h0a8.31,8.31,0,0,1,6.87,9.53h0a20.42,20.42,0,0,1-2,5.71h0a20.81,20.81,0,0,1-8.81,9h0a23.41,23.41,0,0,1-11.05,2.59h0c-6.82,0-14.56-2.31-24.13-7.51h0c-6.54-3.57-11.08-4.54-13.86-4.53h0a8.23,8.23,0,0,0-4.23,1h0a8,8,0,0,0-2.5,2.33h0a14.37,14.37,0,0,0-2.12,4.72h0a8.31,8.31,0,0,1-8.18,6.91h0a8.37,8.37,0,0,1-1.4-.12Z"/><path class="cls-1" d="M282.61,308.22a8.23,8.23,0,0,1,4.23-1c2.78,0,7.32,1,13.86,4.53,9.57,5.2,17.31,7.49,24.13,7.51a23.41,23.41,0,0,0,11.05-2.59,20.81,20.81,0,0,0,8.81-9c.16-.33.31-.64.45-.95a8.3,8.3,0,0,0-15.27,2.76h0v0a5.62,5.62,0,0,1-1.11,2.06,3.77,3.77,0,0,1-1.3.94,7.22,7.22,0,0,1-3,.54c-2.87,0-8.17-1.1-16.18-5.48C300,303.09,292.9,301,286.43,301a24.75,24.75,0,0,0-13.13,3.57,26.17,26.17,0,0,0-9.88,11.48c-.31.69-.59,1.34-.82,2a8.3,8.3,0,0,0,15.4-2.73h0a14.37,14.37,0,0,1,2.12-4.72A8,8,0,0,1,282.61,308.22Z"/><path class="cls-2" d="M281.74,357h0a8.3,8.3,0,0,1-4.93-10.66h0a8.31,8.31,0,0,1,10.66-4.93h0l.06,0h0l.33.12h0l1.43.46h0c1.27.39,3.13.93,5.39,1.47h0a74.4,74.4,0,0,0,16.77,2.13h0A36,36,0,0,0,325.89,343h0a19.21,19.21,0,0,0,9.7-9.13h0a34,34,0,0,0,3.31-13h0a8.3,8.3,0,0,1,8.93-7.63h0a8.3,8.3,0,0,1,7.63,8.93h0a50.46,50.46,0,0,1-5.09,19.29h0a35.88,35.88,0,0,1-11,12.84h0c-8.76,6.27-18.94,7.9-28,7.92h0A95.44,95.44,0,0,1,281.74,357Z"/><path class="cls-1" d="M339.41,354.27a35.88,35.88,0,0,0,11-12.84,50.37,50.37,0,0,0,5.08-19.12A8.29,8.29,0,0,0,343,328.87a34,34,0,0,1-3.31,13A19.22,19.22,0,0,1,330,351a36,36,0,0,1-14.43,2.61,74.53,74.53,0,0,1-16.77-2.13c-2.26-.54-4.13-1.08-5.39-1.47l-1.43-.46-.33-.12-.06,0a8.28,8.28,0,0,0-11.12,7,8.42,8.42,0,0,0,1.24.58h0a95.44,95.44,0,0,0,29.71,5.22C320.47,362.17,330.65,360.54,339.41,354.27Z"/><path class="cls-2" d="M487.1,312.34a53,53,0,0,1-18.82-3.73h0a53,53,0,0,1-8.05-3.84h0a8.31,8.31,0,0,1-2.75-11.42h0a8.31,8.31,0,0,1,11.42-2.75h0l.22.13h0c.22.12.57.32,1,.56h0a43.14,43.14,0,0,0,4.1,1.83h0a36.69,36.69,0,0,0,12.84,2.62h0A20.54,20.54,0,0,0,499,292.27h0c3.76-2.57,7.7-7,11-15.37h0a8.3,8.3,0,0,1,10.79-4.65h0A8.31,8.31,0,0,1,525.43,283h0c-4.23,10.69-10.19,18.27-17.14,23h0a37.21,37.21,0,0,1-21.09,6.33h-.1Z"/><path class="cls-1" d="M525.22,283.55a8.29,8.29,0,0,0-14.81,1.24c-3.34,8.34-7.27,12.8-11,15.37a20.54,20.54,0,0,1-11.86,3.46A36.71,36.71,0,0,1,474.67,301a43,43,0,0,1-4.1-1.83c-.47-.24-.83-.44-1-.56l-.22-.12h0A8.3,8.3,0,0,0,457.47,302a8.26,8.26,0,0,0,2.75,2.76h0a56.63,56.63,0,0,0,26.87,7.57h.1A37.21,37.21,0,0,0,508.29,306C515.13,301.38,521,294,525.22,283.55Z"/><path class="cls-2" d="M506.29,364a17.34,17.34,0,0,1-5.9-5.28h0c-3.1-4.4-4.8-9.88-5.85-17.3h0a15.57,15.57,0,0,0-2.61-7.1h0a13.57,13.57,0,0,0-4.78-4.09h0c-4-2.21-10.14-3.23-16.21-3.2h0a83.6,83.6,0,0,0-19.11,2.42h0a8.31,8.31,0,0,1-10.2-5.83h0a8.3,8.3,0,0,1,5.83-10.2h0a98.75,98.75,0,0,1,23.52-3h0A57.81,57.81,0,0,1,489,313.07h0a32.14,32.14,0,0,1,16.44,11.65h0A32.18,32.18,0,0,1,511,339.18h0c.77,5.79,2.16,8.91,2.86,9.83h0l.07.1h0a5.9,5.9,0,0,0,.61-.24h0a13.52,13.52,0,0,0,2.43-1.51h0a25.05,25.05,0,0,0,3.3-3h0a8.3,8.3,0,0,1,11.7-.91h0a8.3,8.3,0,0,1,.92,11.71h0a38.49,38.49,0,0,1-3.17,3.22h0a33.62,33.62,0,0,1-7.86,5.45h0a19.32,19.32,0,0,1-8.33,2h-.07a15.34,15.34,0,0,1-7.16-1.79Z"/><path class="cls-1" d="M526.15,351.72a8.3,8.3,0,0,0-11.7.91h0a25.23,25.23,0,0,1-3.3,3,13.47,13.47,0,0,1-2.43,1.51,5.83,5.83,0,0,1-.61.24l-.07-.1c-.7-.92-2.09-4-2.86-9.83a30.7,30.7,0,0,0-22-26.11,57.81,57.81,0,0,0-18.07-2.61,98.81,98.81,0,0,0-23.52,3l-.29.1a8.29,8.29,0,0,0,10.48,7.62h0a83.6,83.6,0,0,1,19.11-2.42c6.07,0,12.19,1,16.21,3.2a13.57,13.57,0,0,1,4.78,4.09,15.57,15.57,0,0,1,2.61,7.1c1.05,7.42,2.75,12.9,5.85,17.3a17.34,17.34,0,0,0,5.9,5.28,15.34,15.34,0,0,0,7.16,1.79h.07a19.32,19.32,0,0,0,8.33-2A32.54,32.54,0,0,0,529,359,8.3,8.3,0,0,0,526.15,351.72Z"/><path class="cls-2" d="M444.25,401.71a27.79,27.79,0,0,1-8.51-20.58h0c0-7.81,2.71-16.06,8-24.27h0c2.24-3.47,2.64-5.61,2.62-6.45h0a2,2,0,0,0-.19-.95h0a3.55,3.55,0,0,0-.86-1h0a16.21,16.21,0,0,0-5.61-2.82h0a48.38,48.38,0,0,0-11.36-2h0a8.31,8.31,0,0,1-8.06-8.54h0a8.31,8.31,0,0,1,8.54-8.06h0a63.13,63.13,0,0,1,7.68.8h0a47.58,47.58,0,0,1,15.06,4.83h0a22.45,22.45,0,0,1,9.38,9.2h0a18.65,18.65,0,0,1,2,8.55h0c0,5.18-1.93,10.25-5.27,15.44h0c-4,6.12-5.36,11.39-5.35,15.27h0c0,4,1.3,6.56,3.29,8.48h0c2,1.88,5.14,3.29,9.8,3.3h0a27.1,27.1,0,0,0,6.53-.86h0A8.3,8.3,0,0,1,482,398.11h0a8.3,8.3,0,0,1-6,10.07h0a43.79,43.79,0,0,1-10.54,1.35h-.09c-8.1,0-15.64-2.67-21.1-7.82Z"/><path class="cls-1" d="M464.9,395.79a27.09,27.09,0,0,1-6.53.86c-4.66,0-7.79-1.42-9.81-3.3s-3.24-4.48-3.29-8.48,1.4-9.14,5.35-15.27c3.34-5.19,5.25-10.27,5.27-15.44a18.65,18.65,0,0,0-2-8.55,22.45,22.45,0,0,0-9.38-9.2,47.58,47.58,0,0,0-15.06-4.83,63.09,63.09,0,0,0-7.68-.8h-.11a8.29,8.29,0,0,0,6.69,12.86,48.38,48.38,0,0,1,11.36,2,16.21,16.21,0,0,1,5.61,2.82,3.55,3.55,0,0,1,.86,1,2,2,0,0,1,.19.95c0,.84-.38,3-2.62,6.45-5.29,8.21-8,16.46-8,24.27a27.79,27.79,0,0,0,8.51,20.58c5.46,5.15,13,7.82,21.1,7.82h.09a42.59,42.59,0,0,0,8.23-.84,8.3,8.3,0,0,0-8.76-12.89Z"/><path class="cls-2" d="M399.86,417.75a28.07,28.07,0,0,1-8.21-20h0c0-8.85,4.09-18,12.07-24.95h0a14.85,14.85,0,0,0,3.93-5h0a11,11,0,0,0,1-4.6h0a20.8,20.8,0,0,0-2.77-9.46h0a31.22,31.22,0,0,0-3.41-5.11h0a8.31,8.31,0,0,1,.67-11.73h0a8.31,8.31,0,0,1,11.73.67h0A45.41,45.41,0,0,1,420,345h0a37.61,37.61,0,0,1,5.21,18.18h0a27.65,27.65,0,0,1-2.43,11.42h0a31.48,31.48,0,0,1-8.14,10.72h0c-4.76,4.21-6.37,8.63-6.4,12.45h0a11.44,11.44,0,0,0,3.31,8.2h0c2.13,2.08,5.19,3.6,9.87,3.63h0c.49,0,1,0,1.55-.06h0a8.3,8.3,0,0,1,8.87,7.7h0a8.3,8.3,0,0,1-7.7,8.87h0c-.91.06-1.82.1-2.72.1h-.12a30.13,30.13,0,0,1-21.47-8.47Z"/><path class="cls-1" d="M423.15,418.5a8.31,8.31,0,0,0-8.87-7.7c-.54,0-1.06.05-1.55.06-4.69,0-7.74-1.55-9.87-3.63a11.44,11.44,0,0,1-3.31-8.2c0-3.82,1.63-8.24,6.4-12.45a31.47,31.47,0,0,0,8.14-10.72,27.65,27.65,0,0,0,2.43-11.42,37.61,37.61,0,0,0-5.21-18.18,45.38,45.38,0,0,0-5.18-7.45,8.28,8.28,0,0,0-2.83-2.06l-.18.14a8.31,8.31,0,0,0-.67,11.73,31.22,31.22,0,0,1,3.41,5.11,20.8,20.8,0,0,1,2.77,9.46,11,11,0,0,1-1,4.6,14.85,14.85,0,0,1-3.93,5c-8,6.94-12.1,16.09-12.07,24.95a28.07,28.07,0,0,0,8.21,20,29.8,29.8,0,0,0,19.36,8.39A8.3,8.3,0,0,0,423.15,418.5Z"/><path class="cls-2" d="M365.1,420.82a38,38,0,0,1-9.51-10.1h0A22.32,22.32,0,0,1,352.15,399h0a23.66,23.66,0,0,1,3.8-12.48h0a43.38,43.38,0,0,1,7.73-9h0c5.65-5.15,12-9.19,16-12.12h0a4,4,0,0,0,1.46-1.72h0a6.47,6.47,0,0,0,.45-2.63h0c.05-2.87-1.34-7.19-2.65-10.55h0c-.43-1.16-.84-2.19-1.21-3.47h0a11.59,11.59,0,0,1-.51-3.29h0a9,9,0,0,1,.54-3.09h0a8.68,8.68,0,0,1,3.34-4.25h0a8.3,8.3,0,0,1,11.51,2.34h0a8.28,8.28,0,0,1,1.38,4.55h0l0,.08h0c.35,1,.93,2.46,1.54,4.21h0a41.62,41.62,0,0,1,2.65,13.48h0a23,23,0,0,1-1.86,9.32h0a20.77,20.77,0,0,1-6.89,8.46h0c-3.46,2.51-7.51,5.19-11.14,8.06h0c-3.63,2.84-6.74,5.91-8.22,8.37h0a7.21,7.21,0,0,0-1.31,3.74h0a5.66,5.66,0,0,0,1,3h0a21.82,21.82,0,0,0,5.45,5.58h0a8.3,8.3,0,0,1,1.53,11.64h0a8.29,8.29,0,0,1-6.59,3.25h0a8.27,8.27,0,0,1-5.05-1.72Z"/><path class="cls-1" d="M387.23,348.86c-.61-1.75-1.19-3.23-1.54-4.21l0-.08a8.29,8.29,0,0,0-5.22-7.67,8.74,8.74,0,0,0-2.7,3.78,9,9,0,0,0-.54,3.09,11.59,11.59,0,0,0,.51,3.29c.38,1.29.78,2.31,1.21,3.47,1.31,3.36,2.7,7.68,2.65,10.55a6.47,6.47,0,0,1-.45,2.63,4,4,0,0,1-1.46,1.72c-4,2.93-10.33,7-16,12.12a43.38,43.38,0,0,0-7.73,9,23.66,23.66,0,0,0-3.8,12.48,22.32,22.32,0,0,0,3.44,11.68,38,38,0,0,0,9.51,10.1,8.29,8.29,0,0,0,2,1.12,8.31,8.31,0,0,0-.16-13,21.78,21.78,0,0,1-5.45-5.58,5.65,5.65,0,0,1-1-3,7.21,7.21,0,0,1,1.31-3.74c1.48-2.46,4.59-5.53,8.22-8.37s7.67-5.55,11.14-8.06a20.77,20.77,0,0,0,6.89-8.46,23,23,0,0,0,1.86-9.32A41.64,41.64,0,0,0,387.23,348.86Z"/><path class="cls-2" d="M323.23,395.64a29.6,29.6,0,0,1-7.89-1.09h0a8.31,8.31,0,0,1-5.78-10.22h0a8.31,8.31,0,0,1,10.22-5.79h0a12.88,12.88,0,0,0,3.46.49h0a13.24,13.24,0,0,0,5.65-1.34h0a24.73,24.73,0,0,0,6.09-4.21h0c4.15-3.76,8.2-9.34,11.55-15.2h0a142.52,142.52,0,0,0,11.22-25.56h0l0-.09h0a8.31,8.31,0,0,1,10.37-5.51h0a8.31,8.31,0,0,1,5.52,10.37h0c-.06.2-1.87,6.08-5.28,14h0c-3.44,8-8.42,18-15.25,26.67h0c-4.58,5.77-10,11-16.87,14.38h0a29.92,29.92,0,0,1-13,3.07h0Z"/><path class="cls-1" d="M353.14,378.2c6.83-8.68,11.82-18.71,15.25-26.67s5.22-13.84,5.28-14a8.27,8.27,0,0,0,.32-3.21,8.41,8.41,0,0,0-1.27-.52,8.31,8.31,0,0,0-10.37,5.52l0,.09a142.44,142.44,0,0,1-11.22,25.56c-3.36,5.86-7.4,11.45-11.55,15.2a24.75,24.75,0,0,1-6.09,4.21,13.23,13.23,0,0,1-5.65,1.34,12.83,12.83,0,0,1-3.46-.49,8.29,8.29,0,0,0-10.48,8.8,8.37,8.37,0,0,0,1.47.57,29.6,29.6,0,0,0,7.89,1.09h0a29.92,29.92,0,0,0,13-3.07C343.14,389.25,348.56,384,353.14,378.2Z"/></g></svg>