<?xml version="1.0" encoding="utf-8"?>
<!-- Generator: Adobe Illustrator 21.0.2, SVG Export Plug-In . SVG Version: 6.00 Build 0)  -->
<svg version="1.1" xmlns="http://www.w3.org/2000/svg" xmlns:xlink="http://www.w3.org/1999/xlink" x="0px" y="0px"
	 viewBox="0 0 600 600" style="enable-background:new 0 0 600 600;" xml:space="preserve">
<style type="text/css">
	.st0{fill:#AEDFE3;stroke:#AEDFE3;stroke-width:3;stroke-miterlimit:10;}
	.st1{fill:#DCF1F2;stroke:#DCF1F2;stroke-width:3;stroke-miterlimit:10;}
	.st2{fill:#94D5D7;stroke:#94D5D7;stroke-width:3;stroke-miterlimit:10;}
	.st3{fill:#94D5D7;stroke:#94D5D7;stroke-miterlimit:10;}
	.st4{fill:#6BCAD0;stroke:#6BCAD0;stroke-width:3;stroke-miterlimit:10;}
	.st5{fill:#95D6D8;stroke:#95D6D8;stroke-width:3;stroke-miterlimit:10;}
	.st6{fill:#87D1D5;stroke:#87D1D5;stroke-width:3;stroke-miterlimit:10;}
	.st7{fill:#6BCAD0;}
	.st8{opacity:0.5;fill:#2A262D;}
	.st9{fill:#F5ED50;}
	.st10{fill:#DABF26;}
	.st11{fill:#632531;}
	.st12{fill:#FFFFFF;stroke:#5E2726;stroke-width:3;stroke-linecap:round;stroke-miterlimit:10;}
	.st13{fill:#61C6D0;}
	.st14{fill:url(#SVGID_1_);stroke:#5E2726;stroke-width:4;stroke-linecap:round;stroke-linejoin:round;stroke-miterlimit:10;}
	.st15{fill:url(#SVGID_2_);stroke:#5E2726;stroke-width:4;stroke-linecap:round;stroke-linejoin:round;stroke-miterlimit:10;}
	.st16{fill:#541818;}
	.st17{fill:#5E2726;}
	.st18{fill:#CD1F8A;}
	.st19{fill:#C42890;}
	.st20{fill:none;stroke:#61C6CE;stroke-width:32;stroke-linecap:round;stroke-miterlimit:10;stroke-dasharray:0,21.6892,0,0;}
	.st21{fill:none;stroke:#5E2726;stroke-width:6;stroke-linecap:round;stroke-linejoin:round;stroke-miterlimit:10;}
	.st22{fill:#FFFFFF;}
	.st23{fill:#FFFFFF;stroke:#5E2726;stroke-width:3;stroke-linecap:round;stroke-linejoin:round;stroke-miterlimit:10;}
	.st24{opacity:0.8;fill:#C9A92D;}
	.st25{fill:#C9A92D;}
	.st26{fill:#61C6D0;stroke:#61C6D0;stroke-linecap:round;stroke-linejoin:round;stroke-miterlimit:10;}
	.st27{fill:none;}
</style>
<g id="Background">
	<g>
		<polygon class="st0" points="61,253 79.7,253 70.3,236.4 		"/>
		<g>
			<polygon class="st0" points="41,253 59.7,253 50.3,236.4 			"/>
			<polygon class="st1" points="51,235.4 69.7,235.4 60.3,218.8 			"/>
		</g>
	</g>
	<g>
		<polygon class="st0" points="542.3,327.1 561,327.1 551.7,310.5 		"/>
		<g>
			<polygon class="st0" points="522.3,327.1 541,327.1 531.7,310.5 			"/>
			<polygon class="st1" points="532.3,309.5 551,309.5 541.7,292.9 			"/>
		</g>
	</g>
	<g>
		<polygon class="st0" points="80.3,479.4 99,479.4 89.7,462.8 		"/>
		<g>
			<polygon class="st0" points="60.3,479.4 79,479.4 69.7,462.8 			"/>
			<polygon class="st1" points="70.3,461.8 89,461.8 79.7,445.2 			"/>
		</g>
	</g>
	<g>
		<polygon class="st0" points="79.7,370.5 98.3,370.5 89,353.9 		"/>
		<g>
			<polygon class="st0" points="59.7,370.5 78.3,370.5 69,353.9 			"/>
			<polygon class="st1" points="69.7,352.9 88.3,352.9 79,336.3 			"/>
		</g>
	</g>
	<g>
		<polygon class="st0" points="128.9,184.9 147.5,184.9 138.2,168.3 		"/>
		<g>
			<polygon class="st0" points="108.9,184.9 127.5,184.9 118.2,168.3 			"/>
			<polygon class="st1" points="118.9,167.3 137.5,167.3 128.2,150.7 			"/>
		</g>
	</g>
	<g>
		<polygon class="st0" points="301,409 319.7,409 310.3,392.4 		"/>
		<g>
			<polygon class="st0" points="281,409 299.7,409 290.3,392.4 			"/>
			<polygon class="st1" points="291,391.4 309.7,391.4 300.3,374.8 			"/>
		</g>
	</g>
	<g>
		<polygon class="st0" points="41,79.7 59.7,79.7 50.3,63 		"/>
		<g>
			<polygon class="st0" points="21,79.7 39.7,79.7 30.3,63 			"/>
			<polygon class="st1" points="31,62.1 49.7,62.1 40.3,45.4 			"/>
		</g>
	</g>
	<g>
		<polygon class="st0" points="339.7,53.7 358.3,53.7 349,37.1 		"/>
		<g>
			<polygon class="st0" points="319.7,53.7 338.3,53.7 329,37.1 			"/>
			<polygon class="st1" points="329.7,36.1 348.3,36.1 339,19.5 			"/>
		</g>
	</g>
	<g>
		<polygon class="st0" points="557.7,118.2 576.3,118.2 567,101.6 		"/>
		<g>
			<polygon class="st0" points="537.7,118.2 556.3,118.2 547,101.6 			"/>
			<polygon class="st1" points="547.7,100.6 566.3,100.6 557,84 			"/>
		</g>
	</g>
	<g>
		<polygon class="st0" points="473.7,202 492.3,202 483,185.4 		"/>
		<g>
			<polygon class="st0" points="453.7,202 472.3,202 463,185.4 			"/>
			<polygon class="st1" points="463.7,184.4 482.3,184.4 473,167.8 			"/>
		</g>
	</g>
	<g>
		<polygon class="st0" points="493,483 511.7,483 502.3,466.4 		"/>
		<g>
			<polygon class="st0" points="473,483 491.7,483 482.3,466.4 			"/>
			<polygon class="st1" points="483,465.4 501.7,465.4 492.3,448.8 			"/>
		</g>
	</g>
	<g>
		<polygon class="st0" points="132.7,564.8 151.3,564.8 142,548.1 		"/>
		<g>
			<polygon class="st0" points="112.7,564.8 131.3,564.8 122,548.1 			"/>
			<polygon class="st1" points="122.7,547.1 141.3,547.1 132,530.5 			"/>
		</g>
	</g>
	<g>
		<polygon class="st0" points="431.9,563.8 450.5,563.8 441.2,547.1 		"/>
		<g>
			<polygon class="st0" points="411.9,563.8 430.5,563.8 421.2,547.1 			"/>
			<polygon class="st1" points="421.9,546.2 440.5,546.2 431.2,529.5 			"/>
		</g>
	</g>
	<g>
		<polygon class="st0" points="286.9,538.8 305.6,538.8 296.2,522.2 		"/>
		<g>
			<polygon class="st0" points="266.9,538.8 285.6,538.8 276.2,522.2 			"/>
			<polygon class="st1" points="276.9,521.2 295.6,521.2 286.2,504.6 			"/>
		</g>
	</g>
	<g>
		<polygon class="st2" points="444.7,586.1 463.3,586.1 454,569.5 		"/>
		<polygon class="st2" points="421.3,586.1 440,586.1 430.7,569.5 		"/>
		<polygon class="st2" points="398.7,586.1 417.3,586.1 408,569.5 		"/>
	</g>
	<g>
		<polygon class="st3" points="571.3,139 590,139 580.7,122.3 		"/>
		<polygon class="st3" points="548,139 566.7,139 557.3,122.3 		"/>
		<polygon class="st3" points="525.3,139 544,139 534.7,122.3 		"/>
	</g>
	<g>
		<polygon class="st4" points="93.3,391.4 112,391.4 102.7,374.8 		"/>
		<polygon class="st4" points="70,391.4 88.7,391.4 79.3,374.8 		"/>
		<polygon class="st4" points="47.3,391.4 66,391.4 56.7,374.8 		"/>
	</g>
	<g>
		<polygon class="st5" points="74.7,272.5 93.3,272.5 84,255.9 		"/>
		<polygon class="st5" points="51.3,272.5 70,272.5 60.7,255.9 		"/>
		<polygon class="st5" points="28.7,272.5 47.3,272.5 38,255.9 		"/>
	</g>
	<g>
		<polygon class="st6" points="297.9,556.4 313.7,556.4 305.8,539.8 		"/>
		<polygon class="st6" points="278,556.4 293.9,556.4 285.9,539.8 		"/>
		<polygon class="st6" points="258.7,556.4 274.6,556.4 266.7,539.8 		"/>
	</g>
	<g>
		<g>
			<polygon class="st4" points="63.3,292.8 81.9,292.8 72.6,276.2 			"/>
			<polygon class="st4" points="39.9,292.8 58.6,292.8 49.2,276.2 			"/>
			<polygon class="st4" points="17.3,292.8 35.9,292.8 26.6,276.2 			"/>
		</g>
		<polygon class="st7" points="107,294.4 95.6,273.7 84,294.4 		"/>
	</g>
	<g>
		<polygon class="st3" points="554.7,347.6 573.3,347.6 564,331 		"/>
		<polygon class="st3" points="531.3,347.6 550,347.6 540.7,331 		"/>
		<polygon class="st3" points="508.7,347.6 527.3,347.6 518,331 		"/>
	</g>
	<g>
		<g>
			<polygon class="st4" points="543.5,368 562.1,368 552.8,351.4 			"/>
			<polygon class="st4" points="520.1,368 538.8,368 529.4,351.4 			"/>
			<polygon class="st4" points="497.5,368 516.1,368 506.8,351.4 			"/>
		</g>
		<polygon class="st7" points="587.2,369.6 575.8,348.9 564.2,369.6 		"/>
	</g>
</g>
<g id="Character">
	<ellipse class="st8" cx="299.2" cy="459.2" rx="125" ry="14"/>
	<g>
		<path class="st9" d="M198.7,90.7c-6.9,0,12.2,60.8,33.5,41.8S205.6,90.7,198.7,90.7z"/>
		<path class="st9" d="M223.7,138.2C223.7,138.2,223.7,138.2,223.7,138.2c-5,0-12.7-3.2-20.5-18.3c-4.5-8.8-8-19.9-8-25.9
			c0-4.8,2.4-5.3,3.4-5.3c5.6,0,34.2,12.9,39.9,27.9c1.7,4.4,2.2,11-5,17.4C230.4,136.8,227.1,138.2,223.7,138.2z M199.3,92.8
			c-0.7,3.2,2.3,16.8,9.2,28.5c4.9,8.3,10.3,12.9,15.2,12.9c0,0,0,0,0,0c2.4,0,4.8-1.1,7.1-3.2c4.5-4,5.8-8.2,4-13
			C230.1,105.5,205.4,93.7,199.3,92.8z"/>
	</g>
	<g>
		<path class="st10" d="M223.7,136.7C223.7,136.7,223.7,136.7,223.7,136.7c-8.8,0-15.8-10.9-19.2-17.5c-5.1-9.8-7.8-20.3-7.8-25.2
			c0-3.1,1.1-3.8,1.9-3.8c5.4,0,33,12.4,38.5,26.9c2.2,5.7,0.6,11-4.6,15.7C229.7,135.4,226.7,136.7,223.7,136.7z M198.7,91.2
			c-0.6,0-0.9,1-0.9,2.8c0,10.2,11.7,41.7,26,41.7c0,0,0,0,0,0c2.8,0,5.5-1.2,8.1-3.6c4.9-4.4,6.4-9.3,4.4-14.6
			C231,103.7,203.8,91.2,198.7,91.2z"/>
		<path class="st11" d="M223.7,138.7L223.7,138.7c-9.9,0-17.4-11.6-20.9-18.5c-5.2-10.1-8-21-8-26.1c0-5.2,2.7-5.8,3.9-5.8
			c5.8,0,34.4,12.7,40.3,28.2c2.5,6.5,0.7,12.7-5.2,17.9C230.6,137.2,227.2,138.7,223.7,138.7z M199.8,93.4c0,0.2,0,0.4,0,0.6
			c0,10.5,11.9,39.7,24,39.7c2.2,0,4.5-1,6.8-3.1c4.3-3.8,5.6-7.9,3.8-12.4C229.8,106.2,206.5,94.7,199.8,93.4z"/>
	</g>
	<g>
		<path class="st9" d="M404.3,90.7c6.9,0-12.2,60.8-33.5,41.8C349.4,113.4,397.4,90.7,404.3,90.7z"/>
		<path class="st11" d="M369.4,134c-7.2-6.4-6.7-13-5-17.4c5.7-15,34.3-27.9,39.9-27.9c1,0,3.4,0.5,3.4,5.3c0,6-3.4,17.1-8,25.9
			c-7.8,15.1-15.5,18.3-20.5,18.3c0,0,0,0,0,0C375.9,138.2,372.6,136.8,369.4,134z M368.1,118c-1.8,4.7-0.5,9,4,13
			c2.4,2.1,4.8,3.2,7.1,3.2c0,0,0,0,0,0c4.9,0,10.3-4.6,15.2-12.9c7-11.8,9.9-25.4,9.2-28.5C397.6,93.7,372.9,105.5,368.1,118z"/>
	</g>
	<g>
		<path class="st10" d="M223.7,136.7C223.7,136.7,223.7,136.7,223.7,136.7c-8.8,0-15.8-10.9-19.2-17.5c-5.1-9.8-7.8-20.3-7.8-25.2
			c0-3.1,1.1-3.8,1.9-3.8c5.4,0,33,12.4,38.5,26.9c2.2,5.7,0.6,11-4.6,15.7C229.7,135.4,226.7,136.7,223.7,136.7z M198.7,91.2
			c-0.6,0-0.9,1-0.9,2.8c0,10.2,11.7,41.7,26,41.7c0,0,0,0,0,0c2.8,0,5.5-1.2,8.1-3.6c4.9-4.4,6.4-9.3,4.4-14.6
			C231,103.7,203.8,91.2,198.7,91.2z"/>
		<path class="st11" d="M223.7,138.7L223.7,138.7c-9.9,0-17.4-11.6-20.9-18.5c-5.2-10.1-8-21-8-26.1c0-5.2,2.7-5.8,3.9-5.8
			c5.8,0,34.4,12.7,40.3,28.2c2.5,6.5,0.7,12.7-5.2,17.9C230.6,137.2,227.2,138.7,223.7,138.7z M199.8,93.4c0,0.2,0,0.4,0,0.6
			c0,10.5,11.9,39.7,24,39.7c2.2,0,4.5-1,6.8-3.1c4.3-3.8,5.6-7.9,3.8-12.4C229.8,106.2,206.5,94.7,199.8,93.4z"/>
	</g>
	<path class="st12" d="M445.5,289.1c0-66.3-10.9-187.8-145.5-187.8c-134.6,0-145.5,121.6-145.5,187.8c0,35,18.1,70.1,47.1,95.3
		c0.3,19.5,4,72.3,30,72.3c15.6,0,23.2-20.7,26.9-41c13,3.8,26.8,5.9,41.1,5.9c0.2,0,0.3,0,0.5,0c0.2,0,0.3,0,0.5,0
		c14.4,0,28.3-2.2,41.5-6.1c3.4,20.3,10.9,41.1,27.3,41.1c25.2,0,29.7-54.1,30-73C427.7,358.5,445.5,323.8,445.5,289.1z"/>
	<path class="st13" d="M404.5,206c0,33.1-46.5,49.7-104.5,49.7S194.5,239.1,194.5,206s47-60,105-60S404.5,172.9,404.5,206z"/>
	<radialGradient id="SVGID_1_" cx="249.7979" cy="192.8694" r="11.8765" gradientUnits="userSpaceOnUse">
		<stop  offset="0" style="stop-color:#FFFFFF"/>
		<stop  offset="1" style="stop-color:#000000"/>
	</radialGradient>
	<path class="st14" d="M239,200.8c1-6.8,5.5-11.9,10.8-11.9s9.7,5.1,10.8,11.9h4c-1.2-9-7.3-15.9-14.8-15.9
		c-7.5,0-13.6,6.9-14.8,15.9H239z"/>
	<radialGradient id="SVGID_2_" cx="348.5641" cy="192.8694" r="11.8765" gradientUnits="userSpaceOnUse">
		<stop  offset="0" style="stop-color:#FFFFFF"/>
		<stop  offset="1" style="stop-color:#000000"/>
	</radialGradient>
	<path class="st15" d="M337.8,200.8c1-6.8,5.5-11.9,10.8-11.9s9.7,5.1,10.8,11.9h4c-1.2-9-7.3-15.9-14.8-15.9
		c-7.5,0-13.6,6.9-14.8,15.9H337.8z"/>
	<path class="st16" d="M281.6,215.4c0.7,9.9,8.4,17.6,17.9,17.6c9.5,0,17.3-7.8,17.9-17.6L281.6,215.4z"/>
	<g>
		<g>
			<path class="st16" d="M299.5,235.1c-10.4,0-19.2-8.6-19.9-19.5c0-0.6,0.2-1.1,0.5-1.5c0.4-0.4,0.9-0.6,1.5-0.6h35.9
				c0.6,0,1.1,0.2,1.5,0.6c0.4,0.4,0.6,0.9,0.5,1.5C318.7,226.5,310,235.1,299.5,235.1z"/>
			<path class="st17" d="M281.6,215.4l35.9,0c-0.7,9.9-8.4,17.6-17.9,17.6C290,233.1,282.3,225.3,281.6,215.4 M281.6,211.4
				c-1.1,0-2.2,0.5-2.9,1.3c-0.8,0.8-1.1,1.9-1.1,3c0.8,12,10.4,21.4,21.9,21.4s21.1-9.4,21.9-21.4c0.1-1.1-0.3-2.2-1.1-3
				c-0.8-0.8-1.8-1.3-2.9-1.3L281.6,211.4L281.6,211.4z"/>
		</g>
		<path class="st18" d="M299.5,220.6c-5.3,0-10,2.4-13.3,6.2c3.3,3.8,8,6.2,13.3,6.2s10-2.4,13.3-6.2
			C309.6,223,304.8,220.6,299.5,220.6z"/>
	</g>
	<ellipse class="st19" cx="235" cy="220.6" rx="14" ry="7"/>
	<ellipse class="st19" cx="363.4" cy="220.6" rx="14" ry="7"/>
	<g>
		<ellipse class="st13" cx="299.5" cy="333.8" rx="56" ry="40"/>
		<ellipse class="st20" cx="299.5" cy="333.8" rx="56" ry="40"/>
	</g>
	<g>
		<line class="st21" x1="294.2" y1="347.6" x2="305.8" y2="359.3"/>
		<line class="st21" x1="294.2" y1="359.3" x2="305.8" y2="347.6"/>
	</g>
	<path class="st22" d="M26.9,56.7"/>
	<path class="st23" d="M400.8,269.6l-9.6,35.8c7.8,9,42.4,47.6,55.6,41.5C473.6,334.5,413.8,280.8,400.8,269.6z"/>
	<path class="st23" d="M200.4,269.6l9.6,35.8c-7.8,9-42.4,47.6-55.6,41.5C127.6,334.5,187.4,280.8,200.4,269.6z"/>
	
		<ellipse transform="matrix(0.3187 -0.9479 0.9479 0.3187 -3.1199 564.6371)" class="st22" cx="391.2" cy="284.5" rx="26.4" ry="15.2"/>
	<path class="st22" d="M196.8,289.6c4.8,15.2,15.7,25.1,24.3,22.1c8.6-3.1,11.6-17.9,6.8-33.1s-15.7-25.1-24.3-22.1
		C195,259.5,192,274.3,196.8,289.6z"/>
	<polygon class="st24" points="202,105.2 210,97.4 217,101.2 203.5,109.4 	"/>
	<polygon class="st25" points="203.3,94.5 199.9,96.4 199.8,93.4 	"/>
	<polygon class="st25" points="387.4,99.8 401.6,104.8 402.6,101.2 391.9,97.4 	"/>
	<g>
		<polygon class="st24" points="372.6,111.2 394.1,121.9 396.1,118.2 374.3,109.4 		"/>
		<path class="st24" d="M381.8,103.4l-3.6,2.7c0,0,19.4,9.3,20.4,6.9c1-2.4,0.4-0.6,1.3-3.2C400.9,107.1,381.8,103.4,381.8,103.4z"
			/>
		<path class="st24" d="M400.5,93.6l-3.2,1.2l6.1,2.5c0,0,0.3-2.5,0.3-2.5C403.7,94.9,400.5,93.6,400.5,93.6z"/>
	</g>
	<g>
		<polygon class="st24" points="221,103.9 205.1,113.5 207.7,118.6 225.1,106.9 		"/>
		<polygon class="st24" points="228,109.4 209.5,121.8 211.8,125.2 231.6,113.5 		"/>
		<polygon class="st24" points="202.5,94.2 199.9,96.4 200.2,98.4 205.1,95.2 		"/>
	</g>
	<g>
		<path class="st26" d="M232.7,434.6c0,0.1,0,0.3,0,0.4C232.7,434.8,232.7,434.7,232.7,434.6L232.7,434.6z"/>
		<path class="st26" d="M210.8,433.9L210.8,433.9l0,0.1C210.7,434,210.7,434,210.8,433.9z"/>
		<path class="st26" d="M251.9,435.1L251.9,435.1L251.9,435.1C251.9,435.1,251.9,435.1,251.9,435.1z"/>
		<path class="st26" d="M246.4,440.1c-1.6,0-3-0.7-4.1-1.7c-1,1.1-2.5,1.8-4.2,1.8c-3,0-5.5-2.4-5.5-5.2c0,2.9-2.5,5.2-5.5,5.2
			c-3,0-5.5-2.4-5.5-5.2c0-0.2,0-0.5,0.1-0.7l-0.1,0c0,0.2,0,0.4,0,0.6c0,2.9-2.5,5.2-5.5,5.2c-1.4,0-2.6-0.5-3.6-1.3l0.4,1l2.3,4.5
			l3,4.3l3.4,3.3l2.6,2.2l3.8,1.3l2.4,0.7h2.6l3.1-1l2.5-0.7l3.1-2.3l3.4-3.7l3.6-5.5l1.9-5C249.8,439.2,248.2,440.1,246.4,440.1z"
			/>
	</g>
	<path class="st27" d="M214,431.6c-0.8,0.6-1.8,0.5-2.7,0.3c0-0.2-0.1-0.7,0-0.9c-0.3,1.1,0.2,1.9,1,2.6"/>
	<ellipse class="st27" cx="212.3" cy="431.4" rx="1.7" ry="1.8"/>
	<ellipse class="st27" cx="219.6" cy="422.9" rx="0.1" ry="0.1"/>
	<ellipse class="st22" cx="211.7" cy="433" rx="1.4" ry="1.5"/>
	<ellipse class="st22" cx="212.1" cy="432.5" rx="2.1" ry="1.9"/>
	<ellipse class="st22" cx="300.7" cy="388" rx="1.4" ry="1.5"/>
	<ellipse class="st22" cx="221.6" cy="433.3" rx="3.4" ry="3.5"/>
	<ellipse class="st22" cx="232.6" cy="433.1" rx="3.4" ry="3.5"/>
	<ellipse class="st22" cx="249.1" cy="433" rx="3.4" ry="3.5"/>
	<polygon class="st25" points="403.6,92.8 403.7,94.9 400.5,93.6 	"/>
	<polygon class="st25" points="371.9,111.9 393.8,122.3 396.1,118.2 374.3,109.4 	"/>
	<polygon class="st25" points="400.4,108.4 382.5,102.9 378.2,106.1 398.1,114.2 	"/>
	<polyline class="st25" points="393.8,122.3 371.9,111.9 370.2,114.2 	"/>
	<g>
		<path class="st26" d="M370.3,434.2c0,0.1,0,0.3,0,0.4C370.3,434.5,370.3,434.4,370.3,434.2L370.3,434.2z"/>
		<path class="st26" d="M348.4,433.6L348.4,433.6l0,0.1C348.3,433.7,348.4,433.7,348.4,433.6z"/>
		<path class="st26" d="M389.5,434.8L389.5,434.8L389.5,434.8C389.5,434.8,389.5,434.8,389.5,434.8z"/>
		<path class="st26" d="M384,439.7c-1.6,0-3-0.7-4.1-1.7c-1,1.1-2.5,1.8-4.2,1.8c-3,0-5.5-2.4-5.5-5.2c0,2.9-2.5,5.2-5.5,5.2
			c-3,0-5.5-2.4-5.5-5.2c0-0.2,0-0.5,0.1-0.7l-0.1,0c0,0.2,0,0.4,0,0.6c0,2.9-2.5,5.2-5.5,5.2c-1.4,0-2.6-0.5-3.6-1.3l0.4,1l2.3,4.5
			l3,4.3l3.4,3.3l2.6,2.2l3.8,1.3l2.4,0.7h2.6l3.1-1l2.5-0.7l3.1-2.3l3.4-3.7l3.6-5.5l1.9-5C387.4,438.9,385.8,439.7,384,439.7z"/>
	</g>
	<circle class="st22" cx="359" cy="433" r="4.1"/>
	<circle class="st22" cx="370.3" cy="432.7" r="4.1"/>
	<ellipse class="st22" cx="348.4" cy="433.6" rx="0.6" ry="0.8"/>
	<ellipse class="st22" cx="300.4" cy="391.6" rx="0.6" ry="0.8"/>
	<ellipse class="st22" cx="210.8" cy="433.9" rx="0.6" ry="0.7"/>
	<ellipse class="st22" cx="250.8" cy="435.1" rx="0.9" ry="1.1"/>
</g>
</svg>
